<?xml version="1.0" encoding="UTF-8"?>
<svg width="31px" height="31px" viewBox="0 0 31 31" version="1.1" xmlns="http://www.w3.org/2000/svg" xmlns:xlink="http://www.w3.org/1999/xlink">
    <title>icons_Plane</title>
    <g id="Sample-App---Wedding-Update" stroke="none" stroke-width="1" fill="none" fill-rule="evenodd">
        <g id="FF_Wedding_1.3_Transport" transform="translate(-20.000000, -415.000000)" fill="#689689">
            <g id="Wedding_Icons-/-honeymoon" transform="translate(20.000000, 415.000000)">
                <path d="M23.5286138,2.81461385 C25.2445421,1.09868553 28.6618268,0.338452598 30.1619688,1.83782648 C31.662213,3.33730255 30.9016409,6.75520489 29.1854229,8.47142289 L29.1854229,8.47142289 L25.7956667,11.8596667 L30.0821378,26.860708 L26.5504225,30.3924233 L19.0496667,18.6056667 L15.1854229,22.4714229 L15.0690673,22.5642742 L12.5856667,24.1256667 L13.3806827,28.8954964 L11.3333517,30.9428274 L7.63266667,27.2426667 L4.83447754,29.0042258 C4.34820662,29.3102966 3.72617588,29.2681987 3.28717057,28.9137254 L3.18141676,28.81862 C2.74127221,28.3784754 2.66423426,27.6923527 2.99572007,27.1657035 L2.99572007,27.1657035 L4.75666667,24.3666667 L1.0572093,20.666685 L3.10454035,18.619354 L7.87166667,19.4136667 L9.4358719,16.9307956 L9.52861382,16.8146138 L13.3926667,12.9486667 L11.0550222,11.4620039 L11.7706995,10.3370222 L14.3586667,11.9833333 L19.06,7.282 L15.0458459,6.13520399 L15.4121661,4.85317929 L20.1376667,6.20366667 Z M11.3626667,24.8956667 L8.79066667,26.5146667 L11.3333333,29.0566667 L11.952,28.4373333 L11.3626667,24.8956667 Z M24.7166667,12.9386667 L20.0156667,17.6396667 L26.782,28.274 L28.584,26.472 L24.7166667,12.9386667 Z M29.2194012,2.78087693 C28.3523103,1.91422995 25.7315927,2.49725301 24.4714229,3.75742289 L24.4714229,3.75742289 L21.6046667,6.62266667 L21.6058969,6.62294884 L14.5459962,13.6828496 L14.5446667,13.6826667 L10.5233333,17.7053333 L8.76431661,20.4996666 L4.1242258,27.8758109 L14.294,21.476 L28.2426138,7.52861385 C29.4669448,6.3042829 30.0523223,3.79589826 29.2901654,2.85936074 L29.2901654,2.85936074 Z M3.562,20.0473333 L2.94333333,20.6666667 L5.48466667,23.2086667 L7.10266667,20.6366667 L3.562,20.0473333 Z M6.78276829,1.41246332 C8.21996777,0.318628228 10.2801541,0.428011737 11.5927562,1.74061385 C13.0246858,3.17254343 13.0246858,5.49415998 11.5927562,6.92608956 L11.5927562,6.92608956 L6.66668501,11.8521607 L1.74061381,6.92608955 C0.30868427,5.49415997 0.308684287,3.17254344 1.74061385,1.74061388 C3.05321595,0.428011783 5.11340223,0.31862826 6.55060171,1.41246333 L6.55060171,1.41246333 L6.66666667,1.50466667 Z M10.6499472,2.68342289 C9.73871663,1.77219237 8.26132005,1.77219237 7.35008953,2.68342289 L7.35008953,2.68342289 L6.66668501,3.36682741 L5.98328049,2.6834229 C5.07204997,1.7721924 3.5946534,1.77219241 2.68342289,2.68342292 C1.77219238,3.59465343 1.77219237,5.07205 2.68342286,5.98328052 L2.68342286,5.98328052 L6.66666667,9.966 L10.6499472,5.98328052 C11.5286337,5.10459394 11.5600154,3.69945959 10.7440921,2.7831696 L10.7440921,2.7831696 Z" id="Combined-Shape"></path>
            </g>
        </g>
    </g>
</svg>