<?xml version="1.0" encoding="UTF-8"?>
<svg width="32px" height="32px" viewBox="0 0 32 32" version="1.1" xmlns="http://www.w3.org/2000/svg" xmlns:xlink="http://www.w3.org/1999/xlink">
    <title>icons_accomodations</title>
    <g id="Sample-App---Wedding-Update" stroke="none" stroke-width="1" fill="none" fill-rule="evenodd">
        <g id="FF_Wedding_1.3_Transport" transform="translate(-20.000000, -748.000000)" fill="#689689">
            <g id="icons_accomodations" transform="translate(20.000000, 748.000000)">
                <path d="M14,0.666666667 L13.9996667,2.66566667 L17.9996667,2.66566667 L18,0.666666667 L19.3333333,0.666666667 L19.3326667,5.99966667 L26,6 L25.9996667,17.9996667 L31.3333333,18 L31.3333333,31.3333333 L0.666666667,31.3333333 L0.666666667,18 L5.99966667,17.9996667 L5.99974777,17.2739198 C6.32769247,17.3131496 6.66148915,17.3333333 7,17.3333333 C7.11160957,17.3333333 7.22270668,17.3311392 7.33325055,17.3267918 L7.33333333,30 L13.3326667,29.9996667 L13.3333333,26 L18.6666667,26 L18.6656667,29.9996667 L24.6666667,30 L24.6666667,7.33333333 L15.1665687,7.33299967 C15.0733385,6.87380997 14.9423509,6.42833225 14.7769877,5.99994832 L17.9996667,5.99966667 L17.9996667,3.99966667 L13.9996667,3.99966667 L14.000673,4.47765663 C13.6229912,3.8941999 13.1743535,3.36095433 12.666975,2.89013515 L12.6666667,0.666666667 L14,0.666666667 Z M30,19.3333333 L25.9996667,19.3326667 L25.9996667,29.9996667 L30,30 L30,19.3333333 Z M5.99966667,19.3326667 L2,19.3333333 L2,30 L5.99966667,29.9996667 L5.99966667,19.3326667 Z M17.3333333,27.3333333 L14.6666667,27.3333333 L14.6656667,29.9996667 L17.3326667,29.9996667 L17.3333333,27.3333333 Z M14,22 L14,23.3333333 L11.3333333,23.3333333 L11.3333333,22 L14,22 Z M20.6666667,22 L20.6666667,23.3333333 L18,23.3333333 L18,22 L20.6666667,22 Z M14,18 L14,19.3333333 L11.3333333,19.3333333 L11.3333333,18 L14,18 Z M20.6666667,18 L20.6666667,19.3333333 L18,19.3333333 L18,18 L20.6666667,18 Z M20.6666667,14 L20.6666667,15.3333333 L18,15.3333333 L18,14 L20.6666667,14 Z M14,14 L14,15.3333333 L12.4154992,15.3339874 C12.8797936,14.9366448 13.2998834,14.4891412 13.6673732,13.9998719 L14,14 Z M6.78276829,4.74579665 C8.21996777,3.65196156 10.2801541,3.76134507 11.5927562,5.07394718 C13.0246858,6.50587676 13.0246858,8.82749331 11.5927562,10.2594229 L11.5927562,10.2594229 L6.66668501,15.1854941 L1.74061381,10.2594229 C0.30868427,8.8274933 0.308684287,6.50587678 1.74061385,5.07394721 C3.05321595,3.76134512 5.11340223,3.65196159 6.55060171,4.74579666 L6.55060171,4.74579666 L6.66666667,4.838 Z M10.6499472,6.01675622 C9.73871663,5.1055257 8.26132005,5.1055257 7.35008953,6.01675622 L7.35008953,6.01675622 L6.66668501,6.70016075 L5.98328049,6.01675623 C5.07204997,5.10552573 3.5946534,5.10552574 2.68342289,6.01675626 C1.77219238,6.92798677 1.77219237,8.40538333 2.68342286,9.31661385 L2.68342286,9.31661385 L6.66666667,13.2993333 L10.6499472,9.31661385 C11.5286337,8.43792728 11.5600154,7.03279292 10.7440921,6.11650294 L10.7440921,6.11650294 Z M20.6666667,10 L20.6666667,11.3333333 L18,11.3333333 L18,10 L20.6666667,10 Z" id="Combined-Shape"></path>
            </g>
        </g>
    </g>
</svg>