<?xml version="1.0" encoding="UTF-8"?>
<svg width="32px" height="30px" viewBox="0 0 32 30" version="1.1" xmlns="http://www.w3.org/2000/svg" xmlns:xlink="http://www.w3.org/1999/xlink">
    <title>wedding_car</title>
    <g id="Sample-App---Wedding-Update" stroke="none" stroke-width="1" fill="none" fill-rule="evenodd">
        <g id="FF_Wedding_1.3_Transport" transform="translate(-20.000000, -171.000000)" fill="#689689">
            <g id="Wedding_Icons-/-love-car" transform="translate(20.000000, 170.000000)">
                <path d="M20.2981424,13.7718252 L23.0776667,19.3323333 L28,19.332919 C29.7925031,19.332919 31.2545454,20.7477901 31.3302537,22.5216593 L31.3333333,22.6662523 L31.3333333,27.9995857 L27.9816245,28.0001812 C27.8155391,29.4998779 26.5439802,30.6662523 25,30.6662523 C23.4560198,30.6662523 22.1844609,29.4998779 22.0183755,28.0001812 L10.6482912,28.0001812 C10.4822057,29.4998779 9.21064687,30.6662523 7.66666667,30.6662523 C6.12268647,30.6662523 4.85112761,29.4998779 4.68504215,28.0001812 L0.666666667,27.9995857 L0.666666667,21.332919 C0.666666667,19.5404159 2.08153781,18.0783736 3.85540692,18.0026654 L4,17.9995857 L8.66666667,17.9993333 L8.66666667,14.6662523 L10,14.6662523 L9.99966667,18.3903333 L10.9426667,19.3326701 L21.5873333,19.3326701 L19.1055728,14.3681099 L20.2981424,13.7718252 Z M7.66666667,25.9995857 C6.74619208,25.9995857 6,26.7457778 6,27.6662523 C6,28.5867269 6.74619208,29.332919 7.66666667,29.332919 C8.58714125,29.332919 9.33333333,28.5867269 9.33333333,27.6662523 C9.33333333,26.7457778 8.58714125,25.9995857 7.66666667,25.9995857 Z M25,25.9995857 C24.0795254,25.9995857 23.3333333,26.7457778 23.3333333,27.6662523 C23.3333333,28.5867269 24.0795254,29.332919 25,29.332919 C25.9204746,29.332919 26.6666667,28.5867269 26.6666667,27.6662523 C26.6666667,26.7457778 25.9204746,25.9995857 25,25.9995857 Z M9.05666667,19.3326701 L4,19.332919 C2.93487941,19.332919 2.06422608,20.1655323 2.00339513,21.2154038 L2,21.332919 L2,26.6660035 L4.8376909,26.6653516 C5.24978151,25.5006298 6.36078444,24.6662523 7.66666667,24.6662523 C8.97254889,24.6662523 10.0835518,25.5006298 10.4956424,26.6653516 L22.1710242,26.6653516 C22.5831148,25.5006298 23.6941178,24.6662523 25,24.6662523 C26.3058822,24.6662523 27.4168852,25.5006298 27.8289758,26.6653516 L30,26.6660035 L30,22.6662523 C30,21.6011318 29.1673867,20.7304784 28.1175152,20.6696475 L28,20.6662523 L10.3905243,20.6662523 L9.05666667,19.3326701 Z M17.7916466,1.35027464 C18.7633935,1.24931608 19.7272107,1.60341738 20.4031239,2.310166 C21.6431457,3.61048176 21.6435116,5.6554066 20.4007796,6.95947554 L20.4007796,6.95947554 L16,11.5143797 L11.5960189,6.95613879 C10.3567131,5.65549559 10.3567131,3.61100909 11.5970788,2.30925607 C12.2725755,1.6035865 13.2363118,1.24975399 14.2079489,1.35068398 C14.8557069,1.41797065 15.4584865,1.68233703 15.9412657,2.09686541 L15.9412657,2.09686541 L15.9993333,2.14933681 L16.0583231,2.09681636 C16.5007854,1.71665137 17.0441818,1.46270861 17.6306703,1.37118231 L17.6306703,1.37118231 Z M18.0976745,2.6667922 L17.9294302,2.67646975 C17.3676166,2.73483875 16.8643731,3.04973836 16.566229,3.52947941 L16.566229,3.52947941 L16.0003091,4.44009593 L15.4339434,3.52975659 C15.1355068,3.05006908 14.6321114,2.73525194 14.0701885,2.6768815 C13.5082656,2.61851106 12.9509118,2.82314159 12.5613145,3.23013879 C11.8127257,4.01577775 11.8127257,5.25072693 12.5581129,6.03302914 L12.5581129,6.03302914 L16,9.59467014 L19.4387115,6.03633868 C20.1574087,5.2821558 20.185953,4.11376307 19.5250703,3.32729177 L19.5250703,3.32729177 L19.4388693,3.23102962 C19.0484728,2.82282374 18.4912437,2.61810075 17.9294302,2.67646975 Z" id="Combined-Shape"></path>
            </g>
        </g>
    </g>
</svg>